<?xml version="1.0" encoding="utf-8"?>
<!-- Generator: Adobe Illustrator 18.1.0, SVG Export Plug-In . SVG Version: 6.00 Build 0)  -->
<svg version="1.1" id="Layer_1" xmlns="http://www.w3.org/2000/svg" xmlns:xlink="http://www.w3.org/1999/xlink" x="0px" y="0px"
	 width="363.7px" height="220px" viewBox="-332 251 363.7 220" enable-background="new -332 251 363.7 220" xml:space="preserve">
<path fill="#F9EB21" d="M-11.3,390.6c-12.4,15.1-25.1,25.1-46.6,25.1c-28.9,0-49.3-24.2-49.3-55.2v-0.6c0-30.1,20.4-54.6,49.3-54.6
	c19.8,0,33.4,9.5,45.2,24.2l43.1-33.4C12.1,270.7-15.1,253-57.3,253c-41,0-75,20.4-93.6,51.3c-18.5-29.1-53.3-47.2-101.4-47.2H-332
	v206.7h78.5c48,0,83-18.5,101.8-47.6c18.5,31.6,52.6,51.7,91.9,51.7c45.8,0,72-19.8,91.5-46.6L-11.3,390.6z M-194.4,360.8
	c0,33.4-22.7,52.3-57,52.3h-23.3V307.9h23.3c34.3,0,57,19.2,57,52.3V360.8z"/>
</svg>
