<?xml version="1.0" encoding="utf-8"?>
<!-- Generator: Adobe Illustrator 18.1.0, SVG Export Plug-In . SVG Version: 6.00 Build 0)  -->
<svg version="1.1" id="Layer_1" xmlns="http://www.w3.org/2000/svg" xmlns:xlink="http://www.w3.org/1999/xlink" x="0px" y="0px"
	 width="200px" height="59px" viewBox="0 0 200 59" enable-background="new 0 0 200 59" xml:space="preserve">
<g>
	<g>
		<path fill="#231F20" d="M38.6,41.5c-0.4-1.4-1.9-2.2-3.1-1l-0.5,0.8l4.3,10.9l11.5,0l0-8.5c-1.1,2-2.2,4.1-3.7,5.8
			C44.4,47,41,44.4,38.6,41.5z"/>
		<path fill="#231F20" d="M30.8,42.6c0.4,3.5,2,6.4,3.2,9.6l2.2,0c-1.1-3.4-2-7-3.7-10L30.8,42.6z"/>
		<path fill="#231F20" d="M7,15.9c0.6-0.8,1.4-1.5,2.3-2.1c2.8-2,6-4,9.5-5.4L7,8.4L7,15.9z"/>
		<path fill="#231F20" d="M10.6,50.4l-3.5,0.9l0,1l6.1,0C12.2,51.8,11.3,51.3,10.6,50.4z"/>
		<path fill="#231F20" d="M30.4,52.2c-1-3-1.9-6.2-3.1-9c-0.8-0.3-1.7,0.3-2.5,0.4c-1.8,2.7-3,5.7-4.4,8.7L30.4,52.2z"/>
		<g>
			<path fill="#231F20" d="M27.5,35.4c-0.4,0.4-0.3,0.9,0,1.2c2.1-0.3,4.7-0.7,6.3-1.9L33.6,34C31.5,34.9,29.5,34.7,27.5,35.4z"/>
			<path fill="#231F20" d="M50.8,8.4l-11,0C41,9.1,42,9.8,43,10.8c4.6,5.9,7,14,5.2,21.3c-0.8,2.6-1.4,5.6-3.3,7.6
				c-2.6-1.7,0.9-4.2,0.6-6.4c2.6-7.5-0.5-17-5.4-22.7c-1.4-1.3-2.9-2-4.5-2.3l-8.7,0c-0.8,0.1-1.6,0.2-2.5,0.2
				C17,10.8,9.9,14.3,7,21.9l0,0.9c0.7,4.2,0.2,9.1,3.4,12.4c0,0.9-0.3,1.5-1,1.9c-1.1-0.8-1.8-1.9-2.3-3.1l0,15l1.8-0.7l-0.3-5.5
				l1.8-0.2l0.9,5.1c2.1,1.4,3.9,3.7,6.4,4.1l3.9-8c-0.7-1.2-3-1.6-3.9-2.9c-4.6-4.2-4.8-12-2.7-17.4c2-6.3,8.2-7.5,14.3-8.7
				c2.3,0,4.5,0.6,6.7,1.4c5.5,2.4,6.8,9,7.7,14c-0.1,2.7-1.9,4.9-3.2,7.3c1.2,2.9,4,5.2,6.5,7.6l3.9-6.4L50.8,8.4z"/>
			<path fill="#231F20" d="M41.4,30.1c-0.4-3.6-1.1-8.1-4.1-10.3c-4-4.4-9.7-2.2-14.7-1.2c-3,1.7-5.5,4.5-6.5,8
				c-1.7,4,0.7,8.3,2.9,11.5c2.8,5,8.3,3.1,12.6,2.4C35.7,38.1,41.6,36.1,41.4,30.1z M20.7,31.7c-0.4-0.5-1-1.7-0.3-2
				c1.6-0.3,3.6-1.3,4.4,0l0.2,0.6L20.7,31.7z M33.8,36.5c-2.5,1-5.6,2.2-8.1,1c-0.5-1-0.8-2.9,0.7-3c2.9-0.5,5.8-2.1,8.5-1.5
				C35.6,34.3,35.1,36.1,33.8,36.5z M34.2,28.8c-0.7-0.3-0.9-0.9-1.3-1.5c1.3-1.4,3.4-1.7,5.1-2.5C40.1,27.9,35.1,26.9,34.2,28.8z"
				/>
		</g>
	</g>
	<g>
		<rect x="60.2" y="34.4" fill="#231F20" width="132.6" height="3.2"/>
	</g>
	<polygon fill="#231F20" points="60.2,43.1 61.6,43.1 61.7,50.2 65.9,50.2 65.9,51.5 60.2,51.5 	"/>
	<path fill="#231F20" d="M70.4,43.1l-1.6,0l-3.2,8.4l1.5,0l0.8-2.2l3.3,0l0.8,2.2l1.6,0L70.4,43.1z M68.4,48.1l1.3-3.6h0l1.3,3.6
		L68.4,48.1z"/>
	<polygon fill="#231F20" points="77.2,43.1 83.2,43.1 83.2,44.4 78.7,44.4 78.7,46.6 82.9,46.5 82.9,47.7 78.7,47.7 78.7,50.2 
		83.3,50.2 83.3,51.4 77.3,51.5 	"/>
	<path fill="#231F20" d="M85.3,48.7c0,1.3,1,1.8,2.1,1.8c1.3,0,1.8-0.6,1.8-1.3c0-0.6-0.4-0.9-0.7-1c-0.6-0.2-1.3-0.4-2.5-0.7
		c-1.4-0.4-1.8-1.2-1.9-2.1c0-1.7,1.5-2.5,3-2.5c1.7,0,3.2,0.9,3.2,2.7l-1.5,0c-0.1-1.1-0.8-1.5-1.8-1.5c-0.7,0-1.5,0.2-1.5,1.1
		c0,0.6,0.4,0.9,1,1.1c0.1,0,2,0.5,2.4,0.6c1.1,0.3,1.6,1.3,1.6,2.1c0,1.9-1.7,2.6-3.3,2.6c-1.9,0-3.4-0.9-3.5-3L85.3,48.7z"/>
	<path fill="#231F20" d="M97.3,45.7c-0.2-1-0.9-1.7-2.1-1.7c-1.8,0-2.5,1.6-2.5,3.2c0,1.6,0.8,3.2,2.5,3.2c1.3,0,2-1,2.1-2.2l1.4,0
		c-0.1,2-1.5,3.4-3.5,3.4c-2.5,0-4-2-4-4.4c0-2.4,1.5-4.4,4-4.4c1.9,0,3.4,1,3.5,2.8L97.3,45.7z"/>
	<path fill="#231F20" d="M99.8,43.1l1.5,0l0,4.9c0,1.1,0.1,2.4,2,2.4c1.9,0,2-1.3,2-2.4l0-4.9l1.5,0l0,5.3c0,2.1-1.4,3.2-3.4,3.2
		c-2.1,0-3.4-1.1-3.4-3.2L99.8,43.1z"/>
	<polygon fill="#231F20" points="108.1,43.1 114.1,43 114.1,44.3 109.6,44.3 109.6,46.5 113.8,46.5 113.8,47.7 109.6,47.7 
		109.6,50.1 114.2,50.1 114.2,51.4 108.1,51.4 	"/>
	<polygon fill="#231F20" points="115.2,43 116.7,43 116.7,50.1 121,50.1 121,51.4 115.3,51.4 	"/>
	<path fill="#231F20" d="M125.5,43l-1.6,0l-3.2,8.4l1.5,0l0.8-2.2l3.3,0l0.8,2.2l1.6,0L125.5,43z M123.5,48l1.3-3.6h0L126,48
		L123.5,48z"/>
	<path fill="#231F20" d="M135.8,43l-3.5,0l0,8.3l3.5,0c2.6,0,3.7-1.9,3.7-4.2C139.4,44.9,138.3,43,135.8,43z M135.2,50.2l-1.4,0l0-6
		l1.4,0c2.3,0,2.8,1.3,2.8,3C138,48.8,137.5,50.1,135.2,50.2z"/>
	<polygon fill="#231F20" points="140.5,43 146.5,43 146.5,44.2 142,44.2 142,46.4 146.2,46.4 146.2,47.6 142,47.6 142,50.1 
		146.6,50.1 146.6,51.3 140.5,51.3 	"/>
	<path fill="#231F20" d="M154.1,43l-3.5,0l0,8.3l3.5,0c2.6,0,3.7-1.9,3.7-4.2C157.8,44.8,156.7,43,154.1,43z M153.6,50.1l-1.4,0l0-6
		l1.4,0c2.3,0,2.8,1.3,2.8,3C156.3,48.8,155.9,50.1,153.6,50.1z"/>
	<rect x="158.9" y="43" fill="#231F20" width="1.5" height="8.3"/>
	<path fill="#231F20" d="M162.8,48.5c0,1.3,0.9,1.8,2.1,1.8c1.3,0,1.8-0.6,1.8-1.3c0-0.6-0.4-0.9-0.7-1c-0.6-0.2-1.3-0.4-2.5-0.7
		c-1.4-0.4-1.8-1.2-1.9-2.1c0-1.7,1.5-2.5,3-2.5c1.7,0,3.2,0.9,3.2,2.7l-1.5,0c-0.1-1.1-0.8-1.5-1.8-1.5c-0.7,0-1.5,0.2-1.5,1.1
		c0,0.6,0.4,0.9,1,1.1c0.1,0,2,0.5,2.4,0.6c1.1,0.3,1.6,1.3,1.6,2.1c0,1.9-1.7,2.6-3.3,2.6c-1.9,0-3.4-0.9-3.5-3L162.8,48.5z"/>
	<polygon fill="#231F20" points="169.2,42.9 175.2,42.9 175.2,44.2 170.7,44.2 170.7,46.4 174.9,46.4 174.9,47.6 170.7,47.6 
		170.7,50 175.3,50 175.3,51.3 169.2,51.3 	"/>
	<g>
		<polygon fill="#231F20" points="176.3,42.9 177.8,42.9 181.7,49.1 181.7,49.1 181.7,42.9 183.1,42.9 183.1,51.3 181.5,51.3 
			177.7,45.1 177.7,45.1 177.7,51.3 176.3,51.3 		"/>
		<path fill="#231F20" d="M181.7,40.6c-0.1,0.4-0.2,0.7-0.4,0.9c-0.2,0.2-0.5,0.4-0.9,0.4c-0.3,0-0.6-0.1-0.9-0.2
			c-0.3-0.1-0.6-0.2-0.8-0.2c-0.3,0-0.5,0.3-0.5,0.5l-0.7,0c0.1-0.6,0.5-1.3,1.2-1.3c0.4,0,0.7,0.1,0.9,0.2c0.3,0.1,0.5,0.2,0.7,0.2
			c0.3,0,0.5-0.2,0.6-0.5L181.7,40.6z"/>
	</g>
	<path fill="#231F20" d="M188.1,42.7c-2.5,0-4,2-4,4.4c0,2.4,1.5,4.4,4,4.4c2.5,0,4-2,4-4.4C192.1,44.7,190.6,42.7,188.1,42.7z
		 M188.1,50.3c-1.8,0-2.5-1.6-2.5-3.2c0-1.6,0.7-3.2,2.5-3.2c1.8,0,2.5,1.6,2.5,3.2C190.6,48.7,189.9,50.2,188.1,50.3z"/>
	<g>
		<path fill="#231F20" d="M75.8,16.7c-0.3-2.3-2.1-3.6-4.7-3.6c-3.9,0-5.4,3.4-5.4,6.9c0,3.4,1.5,6.9,5.4,6.9c2.8,0,4.4-1.6,4.7-4.3
			l6,0c-0.3,6-4.7,9.5-10.5,9.5c-7,0-11.5-5.3-11.5-12C59.7,13.3,64.2,8,71.2,8c5,0,10.4,3.2,10.6,8.7L75.8,16.7z"/>
	</g>
	<g>
		<polygon fill="#231F20" points="84.3,8.4 90.3,8.4 90.3,16.9 98.2,16.8 98.2,8.4 104.2,8.4 104.3,31.5 98.3,31.5 98.2,22 90.3,22 
			90.3,31.5 84.3,31.6 		"/>
	</g>
	<path fill="#231F20" d="M120.1,8.4H114l-8.6,23.1l6.2,0l1.4-4.1l8.1,0l1.4,4.1l6.3,0L120.1,8.4z M114.4,22.9l2.6-8.1l0.1,0l2.6,8.1
		L114.4,22.9z"/>
	<g>
		<polygon fill="#231F20" points="140,31.5 133.1,31.5 125.8,8.4 132,8.4 136.6,25.5 136.7,25.5 141.2,8.4 147.5,8.4 		"/>
	</g>
	<g>
		<path fill="#231F20" d="M159,7.8c-7.3,0-11.4,5.4-11.4,12.1c0,6.7,4.1,12,11.4,12c7.3,0,11.4-5.4,11.4-12.1
			C170.5,13.1,166.3,7.8,159,7.8z M159.1,26.7c-3.9,0-5.4-3.4-5.4-6.9c0-3.4,1.5-6.9,5.4-6.9c3.9,0,5.4,3.4,5.4,6.9
			C164.5,23.3,163,26.7,159.1,26.7z"/>
		<polygon fill="#231F20" points="164.7,2 158.8,2.1 155.7,6.9 159.6,6.9 		"/>
	</g>
	<g>
		<polygon fill="#231F20" points="173,8.3 179.2,8.3 187.2,22.5 187.3,22.5 187.3,8.3 192.9,8.3 193,31.4 186.8,31.4 178.8,17 
			178.7,17 178.7,31.4 173,31.4 		"/>
	</g>
</g>
</svg>
